<?xml version="1.0" encoding="utf-8"?>
<!-- Svg Vector Icons : http://www.onlinewebfonts.com/icon -->
<!DOCTYPE svg PUBLIC "-//W3C//DTD SVG 1.1//EN" "http://www.w3.org/Graphics/SVG/1.1/DTD/svg11.dtd">
<svg version="1.1" xmlns="http://www.w3.org/2000/svg" xmlns:xlink="http://www.w3.org/1999/xlink" x="0px" y="0px" viewBox="0 0 1000 1000" enable-background="new 0 0 1000 1000" xml:space="preserve">

<g><g transform="translate(0.000000,511.000000) scale(0.100000,-0.100000)"><path d="M4788.9,4988c-70.4-15.6-176-52.8-234.7-82.1c-136.9-64.5-352.1-275.8-420.5-410.7c-111.5-221-109.5-193.6-109.5-1867.8V1086.1H2483c-1674.2,0-1646.8,2-1867.8-109.5C480.2,908.1,269,692.9,204.4,558C-73.3-13.1,225.9-684,830.3-840.4c93.9-25.4,350.1-29.3,1652.7-29.3h1541.2V-2411c0-1302.6,3.9-1558.8,29.3-1652.7c82.1-314.9,314.9-569.2,627.8-680.6c164.3-60.6,477.2-60.6,641.5,0c311,111.5,545.7,367.7,627.8,680.6c25.4,93.9,29.3,350.1,29.3,1652.7v1541.2h1541.2c1302.6,0,1558.8,3.9,1652.7,29.3c312.9,82.1,569.2,316.9,680.6,627.8c60.6,164.3,60.6,477.2,0,641.5c-111.5,312.9-365.7,545.7-680.6,627.8c-93.9,25.4-350.1,29.3-1652.7,29.3H5980v1541.2c0,1672.2,2,1646.8-109.5,1865.9c-62.6,121.3-215.1,287.5-338.4,367.7C5326.8,4991.9,5029.5,5042.7,4788.9,4988z"/></g></g>
</svg>